<?xml version="1.0" encoding="utf-8"?>
<!-- Generator: Adobe Illustrator 16.0.4, SVG Export Plug-In . SVG Version: 6.00 Build 0)  -->
<!DOCTYPE svg PUBLIC "-//W3C//DTD SVG 1.1//EN" "http://www.w3.org/Graphics/SVG/1.1/DTD/svg11.dtd">
<svg version="1.1" id="Layer_1" xmlns="http://www.w3.org/2000/svg" xmlns:xlink="http://www.w3.org/1999/xlink" x="0px" y="0px"
	 width="64px" height="64px" viewBox="0 0 64 64" enable-background="new 0 0 64 64" xml:space="preserve">
<path fill-rule="evenodd" clip-rule="evenodd" fill="#5C1E1F" d="M45.251,18.803v0.909c-0.329,0.172-0.667,0.302-1.01,0.392
	c-0.342,0.089-0.681,0.135-1.017,0.135c-0.322,0-0.63-0.042-0.923-0.126c-0.293-0.085-0.57-0.21-0.831-0.377
	c-0.418-0.273-0.743-0.624-0.976-1.048c-0.232-0.426-0.35-0.888-0.35-1.389c0-0.377,0.077-0.745,0.229-1.101
	c0.152-0.354,0.372-0.667,0.653-0.932c0.301-0.285,0.638-0.498,1.011-0.638c0.374-0.142,0.787-0.211,1.241-0.211
	c0.316,0,0.63,0.036,0.942,0.108c0.311,0.073,0.639,0.187,0.979,0.344v0.875c-0.357-0.193-0.692-0.336-1.007-0.43
	c-0.313-0.092-0.619-0.138-0.914-0.138c-0.659,0-1.201,0.205-1.632,0.614c-0.431,0.41-0.645,0.922-0.645,1.54
	c0,0.611,0.212,1.119,0.635,1.529c0.423,0.409,0.954,0.614,1.594,0.614c0.328,0,0.659-0.055,0.994-0.165
	C44.563,19.197,44.905,19.029,45.251,18.803L45.251,18.803z M49.441,47.604c0,0.287,0.054,0.562,0.161,0.822
	c0.106,0.26,0.263,0.491,0.463,0.693c0.197,0.2,0.427,0.355,0.691,0.464c0.264,0.108,0.541,0.164,0.828,0.164
	c0.294,0,0.571-0.054,0.832-0.16c0.258-0.105,0.49-0.262,0.693-0.468c0.2-0.203,0.355-0.434,0.465-0.693
	c0.108-0.26,0.163-0.535,0.163-0.822s-0.053-0.558-0.161-0.814c-0.107-0.256-0.267-0.491-0.475-0.703
	c-0.201-0.207-0.433-0.363-0.693-0.473c-0.259-0.109-0.534-0.163-0.824-0.163c-0.28,0-0.55,0.054-0.812,0.164
	c-0.262,0.11-0.498,0.267-0.707,0.472c-0.2,0.194-0.356,0.425-0.463,0.688C49.495,47.037,49.441,47.313,49.441,47.604L49.441,47.604
	z M48.584,47.573c0-0.375,0.077-0.74,0.229-1.094c0.153-0.354,0.371-0.668,0.652-0.938c0.287-0.277,0.612-0.486,0.976-0.633
	c0.361-0.145,0.743-0.217,1.144-0.217c0.407,0,0.794,0.072,1.161,0.22c0.365,0.146,0.688,0.355,0.968,0.63
	c0.293,0.284,0.513,0.602,0.661,0.949c0.147,0.349,0.222,0.729,0.222,1.137c0,0.384-0.076,0.752-0.229,1.105
	c-0.15,0.353-0.367,0.663-0.646,0.932c-0.293,0.279-0.618,0.49-0.98,0.634c-0.362,0.145-0.747,0.216-1.157,0.216
	c-0.4,0-0.784-0.075-1.15-0.222c-0.366-0.147-0.688-0.357-0.969-0.628c-0.29-0.281-0.51-0.601-0.658-0.954
	C48.658,48.355,48.584,47.977,48.584,47.573L48.584,47.573z M45.305,50.415v-5.633h-0.701l-3.711,4.372v-4.372h-0.801v5.633h0.717
	l3.696-4.377v4.377H45.305L45.305,50.415z M59.203,40.322V34.69h0.809v5.632H59.203L59.203,40.322z M51.19,40.322v-4.898h-2.07
	V34.69h4.94v0.733h-2.07v4.898H51.19L51.19,40.322z M41.106,39.883v-1.061c0.256,0.293,0.499,0.502,0.732,0.632
	c0.231,0.128,0.479,0.192,0.741,0.192c0.279,0,0.499-0.064,0.66-0.194c0.16-0.131,0.242-0.308,0.242-0.53
	c0-0.183-0.055-0.344-0.162-0.48c-0.109-0.14-0.369-0.339-0.778-0.598c-0.638-0.411-1.036-0.73-1.2-0.956
	c-0.162-0.226-0.243-0.495-0.243-0.806c0-0.438,0.155-0.797,0.465-1.078c0.311-0.281,0.71-0.421,1.198-0.421
	c0.217,0,0.432,0.031,0.643,0.094c0.211,0.064,0.424,0.161,0.638,0.293v0.916c-0.247-0.199-0.474-0.343-0.684-0.434
	c-0.209-0.09-0.418-0.135-0.628-0.135c-0.252,0-0.458,0.061-0.618,0.187c-0.159,0.125-0.238,0.285-0.238,0.482
	c0,0.279,0.331,0.625,0.991,1.039l0.122,0.073c0.54,0.335,0.895,0.63,1.061,0.887c0.167,0.256,0.251,0.574,0.251,0.952
	c0,0.429-0.156,0.784-0.468,1.063c-0.312,0.28-0.711,0.421-1.197,0.421c-0.305,0-0.577-0.043-0.822-0.129
	C41.567,40.208,41.332,40.071,41.106,39.883L41.106,39.883z M57.871,30.231v-5.633h3.391v0.717h-2.59v1.708h2.516v0.726h-2.516
	v1.757h2.672v0.726H57.871L57.871,30.231z M51.08,25.365h-1.271v4.099h1.271c0.695,0,1.241-0.183,1.639-0.547
	c0.397-0.366,0.595-0.865,0.595-1.498c0-0.637-0.197-1.139-0.595-1.504C52.321,25.548,51.775,25.365,51.08,25.365L51.08,25.365z
	 M51.08,24.598c0.417,0,0.774,0.038,1.074,0.117c0.298,0.079,0.573,0.201,0.822,0.37c0.381,0.258,0.676,0.589,0.883,0.992
	c0.207,0.404,0.312,0.85,0.312,1.335c0,0.486-0.105,0.933-0.313,1.34c-0.211,0.406-0.504,0.737-0.882,0.993
	c-0.244,0.169-0.518,0.292-0.822,0.37c-0.303,0.078-0.66,0.117-1.074,0.117h-2.071v-5.633H51.08L51.08,24.598z M45.305,30.231
	v-5.633h-0.701l-3.711,4.373v-4.373h-0.801v5.633h0.717l3.696-4.376v4.376H45.305L45.305,30.231z M58.714,17.756h1.756l-0.89-2.029
	L58.714,17.756L58.714,17.756z M56.857,20.139l2.441-5.633h0.587l2.473,5.633h-0.833l-0.725-1.658h-2.4l-0.717,1.658H56.857
	L56.857,20.139z M49.85,20.139v-5.633h0.801v4.907h2.681v0.726H49.85z"/>
<path fill-rule="evenodd" clip-rule="evenodd" fill="#231F20" d="M16.281,46.77c-7.901,0-14.306-6.403-14.306-14.305
	c0-7.901,6.405-14.306,14.306-14.306v-1.262c-8.598,0-15.568,6.97-15.568,15.568c0,8.598,6.97,15.568,15.568,15.568V46.77
	L16.281,46.77z M4.565,32.475c0-1.252,0.223-2.516,0.635-3.723c0.85-2.488,2.502-4.737,4.656-6.157
	c1.234-0.814,2.928-1.519,5.302-1.749c1.093-0.105,1.951,0.062,2.601,0.417c-1.367,1.875-2.174,4.183-2.174,6.681
	c0,5.875,4.461,10.707,10.18,11.294c-1.183,1.662-2.79,3.001-4.662,3.859c-0.569-0.438-1.485-1.247-1.485-1.247l-1.688-2.012
	c0,0,0.323-0.036,0.107-0.431c-0.215-0.396-2.011-2.73-3.412-4.203c-1.4-1.473-1.688-1.221-2.012-1.437
	c-0.323-0.216-0.927-1.379-2.474-1.299c-1.548,0.079-2.196,1.011-2.196,1.011c-0.771,0.252-0.938,0.465-1.293,0.719
	c0.794-0.195,1.401-0.218,1.904-0.144c0,0,0.326,0.082-1.94,0.61c2.048-0.071,1.724-0.071,2.442,0.359
	c0.719,0.431,0.432,1.007,0.862,2.119c0.431,1.113,3.017,3.88,3.017,3.88l0.288,0.934l-1.535,1.274
	C7.502,41.457,4.565,37.31,4.565,32.475L4.565,32.475z M11.834,43.292l0.237-0.011c0,0,1.332-1.036,1.656-1.216
	c0.323-0.18,0.395-0.646,0.395-0.646l0.395,0.145l-1.279,2.044l0.38,0.132l1.367-1.925l0.431-0.538l1.222,0.502
	c0,0,1.309,1.455,2.2,2.086c-0.834,0.189-1.702,0.289-2.593,0.289C14.683,44.153,13.194,43.847,11.834,43.292z"/>
<ellipse fill-rule="evenodd" clip-rule="evenodd" fill="#231F20" cx="33.268" cy="32.465" rx="0.171" ry="20.856"/>
</svg>
